<svg xmlns="http://www.w3.org/2000/svg" width="50" height="50" fill="none"><g fill="#FF7F49" clip-path="url(#a)"><path d="M46.672 11.657H33.669a.834.834 0 0 0 0 1.667h13.003c.46 0 .834.374.834.834v4.167H34.127a.834.834 0 0 0 0 1.667h13.378V47.5c0 .46-.373.834-.833.834H3.328a.835.835 0 0 1-.834-.834V19.992h13.378a.834.834 0 0 0 0-1.667H2.494v-4.167c0-.46.374-.834.834-.834H16.33a.834.834 0 0 0 0-1.667H3.328a2.503 2.503 0 0 0-2.5 2.5V47.5a2.5 2.5 0 0 0 2.5 2.5h43.344c1.379 0 2.5-1.12 2.5-2.5V14.158a2.502 2.502 0 0 0-2.5-2.501Z"/><path d="M4.403 15.233a.86.86 0 0 0-.242.592.86.86 0 0 0 .242.591c.158.15.367.242.592.242a.878.878 0 0 0 .591-.242.878.878 0 0 0 .242-.591.877.877 0 0 0-.242-.592c-.317-.309-.875-.309-1.183 0Zm3.334 0a.875.875 0 0 0-.241.592c0 .216.091.433.241.591.159.15.375.242.592.242a.878.878 0 0 0 .592-.242.878.878 0 0 0 .242-.591.877.877 0 0 0-.242-.592c-.317-.309-.875-.309-1.184 0Zm3.334 0a.875.875 0 0 0-.241.592c0 .225.091.433.241.583a.833.833 0 0 0 1.184.009.862.862 0 0 0 .242-.592.877.877 0 0 0-.242-.592c-.309-.308-.876-.308-1.184 0Zm1.585 13.438a.835.835 0 0 0-.1.8l1.667 4.168a.834.834 0 0 0 1.24.381l4.654-3.137c.292.824.56 1.493.74 1.93l.002.003a.833.833 0 0 0 .18.27c.036.036.083.055.124.084.048.032.09.072.143.094a.84.84 0 0 0 .318.065h.36l-1.064 2.128a.834.834 0 0 0 .746 1.206h6.668a.834.834 0 0 0 .746-1.206l-1.064-2.128h.11c.043 0 .08-.018.12-.024.043.006.084.025.126.025a.834.834 0 0 0 .771-.517c.18-.437.447-1.107.74-1.93l4.653 3.137a.833.833 0 0 0 1.24-.381l1.668-4.168a.835.835 0 0 0-.1-.8l-5.108-7.022c.428-3.358.401-7.208-.767-11.16-1.089-3.68-3.057-7.12-5.85-10.225-.316-.352-.922-.352-1.24 0-2.793 3.106-4.76 6.546-5.848 10.225-1.169 3.952-1.196 7.802-.767 11.16l-5.108 7.022Zm10.358 6.325.834-1.667h2.303l.834 1.667h-3.97Zm8.85-11.025 3.86 5.308-1.112 2.781-4.166-2.808a42.878 42.878 0 0 0 1.417-5.28Zm-11.735-13.01c.935-3.16 2.572-6.141 4.87-8.87 2.299 2.728 3.935 5.708 4.87 8.87 1.137 3.84 1.137 7.544.69 10.774l-.005.045c-.503 3.602-1.558 6.61-2.235 8.523-.187.529-.36.983-.51 1.36H22.19a39.277 39.277 0 0 1-.51-1.36c-.676-1.913-1.732-4.92-2.234-8.523l-.006-.045c-.446-3.23-.446-6.934.69-10.774Zm-.575 18.29-4.166 2.81-1.113-2.782 3.861-5.308a42.91 42.91 0 0 0 1.418 5.28Zm4.612 11.58v2.5a.833.833 0 1 0 1.668 0v-2.5a.833.833 0 1 0-1.668 0Zm-3.334-1.667v2.5a.834.834 0 0 0 1.667 0v-2.5a.834.834 0 0 0-1.667 0Zm7.502-.834a.834.834 0 0 0-.834.834v2.5a.834.834 0 0 0 1.668 0v-2.5a.834.834 0 0 0-.834-.834Z"/><path d="M25 19.159a4.173 4.173 0 0 0 4.168-4.168A4.173 4.173 0 0 0 25 10.823a4.173 4.173 0 0 0-4.168 4.168A4.173 4.173 0 0 0 25 19.16Zm0-6.668c1.379 0 2.5 1.121 2.5 2.5 0 1.38-1.121 2.5-2.5 2.5a2.502 2.502 0 0 1 0-5Z"/></g><defs><clipPath id="a"><path fill="#fff" d="M0 0h50v50H0z"/></clipPath></defs></svg>