<svg xmlns="http://www.w3.org/2000/svg" width="32" height="33" fill="none"><path fill="#FF7F49" d="M24.167 3.5H7.833a5.896 5.896 0 0 0-4.122 1.68A5.682 5.682 0 0 0 2 9.226v13.746a5.682 5.682 0 0 0 1.71 4.047 5.895 5.895 0 0 0 4.123 1.68h16.334a5.895 5.895 0 0 0 4.122-1.68A5.682 5.682 0 0 0 30 22.973V9.227a5.682 5.682 0 0 0-1.71-4.048A5.895 5.895 0 0 0 24.166 3.5ZM7.833 5.79h16.334c.698.002 1.38.209 1.958.594a3.45 3.45 0 0 1 1.285 1.568l-8.934 8.773A3.541 3.541 0 0 1 16 17.73a3.541 3.541 0 0 1-2.476-1.004L4.59 7.952a3.449 3.449 0 0 1 1.285-1.568 3.546 3.546 0 0 1 1.958-.593Zm16.334 20.62H7.833a3.533 3.533 0 0 1-2.475-1.007 3.405 3.405 0 0 1-1.025-2.43V10.946l7.542 7.4A5.897 5.897 0 0 0 16 20.02c1.547 0 3.03-.602 4.125-1.675l7.542-7.4v12.028a3.41 3.41 0 0 1-1.026 2.43 3.533 3.533 0 0 1-2.474 1.006Z"/></svg>