<svg xmlns="http://www.w3.org/2000/svg" width="32" height="33" fill="none"><path fill="#FF7F49" d="M17.146 3.67a1.169 1.169 0 0 1 1.168-1.168A11.699 11.699 0 0 1 30 14.188a1.168 1.168 0 1 1-2.337 0 9.36 9.36 0 0 0-9.349-9.349 1.169 1.169 0 0 1-1.168-1.169Zm1.168 5.843a4.674 4.674 0 0 1 4.675 4.675 1.168 1.168 0 1 0 2.337 0 7.018 7.018 0 0 0-7.012-7.012 1.169 1.169 0 0 0 0 2.337Zm10.626 12.55a3.623 3.623 0 0 1 0 5.116l-1.063 1.226c-9.57 9.163-32.86-14.121-23.84-23.723l1.345-1.168a3.6 3.6 0 0 1 5.056.047A657.06 657.06 0 0 1 12.64 6.41a3.623 3.623 0 0 1-.008 5.004l-1.354 1.701a14.936 14.936 0 0 0 8.1 8.116l1.712-1.362a3.622 3.622 0 0 1 5.002-.007s2.812 2.165 2.848 2.2Zm-1.608 1.699s-2.796-2.151-2.832-2.188a1.285 1.285 0 0 0-1.81 0c-.032.033-2.39 1.911-2.39 1.911a1.169 1.169 0 0 1-1.143.178A17.537 17.537 0 0 1 8.849 13.37a1.169 1.169 0 0 1 .17-1.169s1.877-2.358 1.909-2.388a1.285 1.285 0 0 0 0-1.81c-.036-.036-2.188-2.834-2.188-2.834a1.285 1.285 0 0 0-1.764.045L5.632 6.383c-6.593 7.927 13.59 26.99 20.536 20.425l1.065-1.227a1.31 1.31 0 0 0 .1-1.819Z"/></svg>