<svg xmlns="http://www.w3.org/2000/svg" width="163" height="40" fill="none"><g clip-path="url(#a)"><path fill="#FF7F49" d="M20 20a1.27 1.27 0 0 1-.487-.098L.763 11.985a1.252 1.252 0 0 1 0-2.303l18.75-7.917c.312-.132.66-.132.972 0l18.75 7.917a1.251 1.251 0 0 1 .002 2.303l-18.75 7.917A1.27 1.27 0 0 1 20 20Z"/><path fill="#001726" d="m39.237 16.348-1.954-.825-15.823 6.682a3.74 3.74 0 0 1-2.922-.002l-15.82-6.68-1.955.825a1.252 1.252 0 0 0 0 2.304l18.75 7.916c.157.065.322.099.487.099.165 0 .33-.034.487-.099l18.75-7.916a1.252 1.252 0 0 0 0-2.304Z"/><path fill="#FF7F49" d="m39.237 23.015-1.954-.825-15.823 6.682a3.74 3.74 0 0 1-2.922-.002l-15.82-6.68-1.953.825a1.251 1.251 0 0 0-.002 2.303l18.75 7.917a1.27 1.27 0 0 0 .973 0l18.75-7.917a1.252 1.252 0 0 0 0-2.303Z"/><path fill="#001726" d="m39.237 29.682-1.954-.825-15.823 6.681a3.74 3.74 0 0 1-2.922-.001l-15.82-6.68-1.953.825a1.251 1.251 0 0 0-.002 2.303l18.75 7.917a1.27 1.27 0 0 0 .974 0l9.375-3.959 9.375-3.958a1.252 1.252 0 0 0 0-2.303Z"/></g><path fill="#0A1128" d="M61.935 8.4c3.617 0 6.417 1.003 8.4 3.01 1.983 1.983 2.975 4.83 2.975 8.54 0 3.687-.992 6.533-2.975 8.54-1.983 2.007-4.783 3.01-8.4 3.01H53.01V8.4h8.925Zm-.245 19.25c2.193 0 3.838-.653 4.935-1.96 1.12-1.33 1.68-3.243 1.68-5.74 0-2.497-.56-4.398-1.68-5.705-1.097-1.33-2.742-1.995-4.935-1.995h-3.85v15.4h3.85Zm17.249-16.17c-1.004 0-1.75-.21-2.24-.63-.49-.443-.735-1.085-.735-1.925 0-.863.245-1.505.735-1.925.49-.443 1.236-.665 2.24-.665 1.003 0 1.75.222 2.24.665.49.42.735 1.062.735 1.925 0 .84-.245 1.482-.735 1.925-.49.42-1.237.63-2.24.63Zm2.38 2.52v17.5h-4.795V14h4.795Zm20.168-4.165.56 3.43h-.315a1.31 1.31 0 0 0-.315-.035c-1.074 0-1.879.245-2.415.735-.537.467-.805 1.12-.805 1.96l-1.96-.805c0-.933.186-1.797.56-2.59a4.655 4.655 0 0 1 1.645-1.96c.746-.49 1.633-.735 2.66-.735h.385Zm-5.74 18.375c1.89 0 3.348.408 4.375 1.225 1.026.817 1.54 1.96 1.54 3.43 0 1.33-.385 2.45-1.155 3.36-.77.933-1.855 1.633-3.255 2.1-1.377.467-2.975.7-4.795.7-3.01 0-5.215-.42-6.615-1.26-1.377-.84-2.065-1.937-2.065-3.29 0-.957.361-1.762 1.085-2.415.746-.653 1.971-1.015 3.675-1.085l-.175.56c-1.214-.21-2.147-.607-2.8-1.19-.63-.607-.945-1.435-.945-2.485 0-1.073.408-1.948 1.225-2.625.84-.7 1.971-1.108 3.395-1.225l2.1.98h-.49c-1.004.07-1.715.28-2.135.63-.397.327-.595.7-.595 1.12 0 .49.186.863.56 1.12.396.233.956.35 1.68.35h5.39Zm-3.255 7.525c1.213 0 2.205-.105 2.975-.315.793-.21 1.376-.478 1.75-.805.396-.327.595-.688.595-1.085 0-.443-.175-.805-.525-1.085-.35-.257-.98-.385-1.89-.385h-5.915c-.56 0-1.027.14-1.4.42-.35.28-.525.665-.525 1.155 0 .653.431 1.167 1.295 1.54.886.373 2.1.56 3.64.56Zm.035-22.085c1.633 0 3.045.245 4.235.735 1.213.467 2.135 1.143 2.765 2.03.653.887.98 1.948.98 3.185 0 1.213-.327 2.263-.98 3.15-.63.887-1.552 1.575-2.765 2.065-1.19.467-2.602.7-4.235.7-2.59 0-4.574-.525-5.95-1.575-1.354-1.073-2.03-2.52-2.03-4.34 0-1.237.315-2.298.945-3.185.653-.887 1.575-1.563 2.765-2.03 1.19-.49 2.613-.735 4.27-.735Zm0 3.01c-.934 0-1.704.257-2.31.77-.607.513-.91 1.225-.91 2.135 0 .91.303 1.633.91 2.17.606.513 1.376.77 2.31.77.933 0 1.691-.257 2.275-.77.606-.537.91-1.26.91-2.17 0-.91-.304-1.622-.91-2.135-.584-.513-1.342-.77-2.275-.77Zm13.399-5.18c-1.004 0-1.75-.21-2.24-.63-.49-.443-.735-1.085-.735-1.925 0-.863.245-1.505.735-1.925.49-.443 1.236-.665 2.24-.665 1.003 0 1.75.222 2.24.665.49.42.735 1.062.735 1.925 0 .84-.245 1.482-.735 1.925-.49.42-1.237.63-2.24.63Zm2.38 2.52v17.5h-4.795V14h4.795Zm21.848 0-8.085 8.435-.945.455-5.25 5.635-.07-5.11 8.89-9.415h5.46Zm-13.02-7.665V31.5h-4.795V6.335h4.795Zm5.6 13.23 7.84 11.935h-5.425l-5.705-9.135 3.29-2.8Zm16.909 12.285c-1.843 0-3.453-.362-4.83-1.085a7.648 7.648 0 0 1-3.15-3.115c-.747-1.353-1.12-2.987-1.12-4.9 0-1.913.373-3.547 1.12-4.9.747-1.353 1.785-2.392 3.115-3.115 1.353-.723 2.893-1.085 4.62-1.085 1.773 0 3.278.362 4.515 1.085a7.076 7.076 0 0 1 2.835 2.905c.653 1.213.98 2.602.98 4.165 0 .467-.012.91-.035 1.33-.023.42-.058.793-.105 1.12h-13.965V20.93h11.865l-2.31.84c0-1.47-.338-2.602-1.015-3.395-.653-.793-1.587-1.19-2.8-1.19-.887 0-1.657.21-2.31.63-.63.42-1.108 1.05-1.435 1.89-.327.817-.49 1.855-.49 3.115 0 1.237.175 2.263.525 3.08.373.793.887 1.388 1.54 1.785.677.397 1.482.595 2.415.595 1.027 0 1.855-.198 2.485-.595a4.025 4.025 0 0 0 1.47-1.645l3.815 1.47a6.05 6.05 0 0 1-1.715 2.345c-.747.653-1.645 1.155-2.695 1.505-1.027.327-2.135.49-3.325.49Zm16.986-23.205v17.15c0 .84.21 1.458.63 1.855.443.373 1.038.56 1.785.56.583 0 1.097-.082 1.54-.245.443-.187.84-.432 1.19-.735l.77 3.185c-.56.443-1.26.793-2.1 1.05a9.054 9.054 0 0 1-2.66.385c-1.167 0-2.205-.175-3.115-.525a4.398 4.398 0 0 1-2.1-1.68c-.49-.77-.735-1.797-.735-3.08V9.975l4.795-1.33Zm5.6 5.355v3.57h-13.615V14h13.615Z"/><defs><clipPath id="a"><path fill="#fff" d="M0 0h40v40H0z"/></clipPath></defs></svg>