<svg xmlns="http://www.w3.org/2000/svg" width="20" height="20" fill="none"><g fill="#fff" clip-path="url(#a)"><path d="M11.521 11.815C10.83 8.25 7.564 6.63 4.231 7.262c.383-2 2.255-3.635 3.471-5.155.173-.215.262-.594 0-.797-.64-.499-1.24-.654-1.79-.575-.04-.105-.14-.183-.272-.141C3.683 1.21 2.416 3.3 1.568 5.033.448 7.32-.112 9.967.018 12.508c.208 4.006 3.785 7.826 8.044 6.714 3.11-.812 3.992-4.66 3.46-7.407Zm-7.97 3.206.002-.004c.02-.075.036-.15.054-.226.058.074.11.156.156.246a1.76 1.76 0 0 1-.212.017v-.033Zm-.9-9.402a.54.54 0 0 0 .162.041c-.166.334-.32.673-.458 1.02a.606.606 0 0 0-.169-.024c.141-.351.299-.696.465-1.037Zm-.427 10.17c.133.138.277.27.427.398a.541.541 0 0 0-.058.092 4.428 4.428 0 0 1-.37-.49Zm3.841-.014a2.311 2.311 0 0 1-.46-1.089c.282.383.508.809.718 1.24a1.532 1.532 0 0 1-.258-.152Z"/><path d="M12.17 6.617c.377-1.521 1.405-2.571 2.15-3.943.122-.223.075-.57-.18-.688-.464-.216-.882-.456-1.346-.633-.14-.3-.565-.497-.89-.204-.575.518-1.202 1.182-1.703 1.924-.665.815-1.142 1.805-1.3 2.757a.599.599 0 0 0 .044.33l-.072.125a.454.454 0 0 0 .161.615c2.53 1.442 3.577 3.79 3.502 6.266-.128.36-.16.75-.112 1.143-.204 1.245-.673 2.492-1.366 3.644-.156.258-.098.5.054.665.04.13.145.239.333.281 4.033.911 8.09-1.019 8.528-5.42.408-4.094-3.858-7.545-7.802-6.862Zm1.535 11.38.04-.042a2.33 2.33 0 0 0 .997-.3l.009.041c.01.04.03.07.045.104-.355.09-.72.157-1.091.196Zm2.86-7.7c-.038.071-.071.141-.105.212l-.006-.06a2.07 2.07 0 0 1 .07-.449l.014.009c.02.084.036.17.05.258-.007.01-.016.02-.022.03Zm1.927 4.417a5.65 5.65 0 0 0-.003-.29c.063-.108.122-.218.171-.332-.04.217-.1.422-.168.622Z"/></g><defs><clipPath id="a"><path fill="#fff" d="M0 0h20v20H0z"/></clipPath></defs></svg>