<svg xmlns="http://www.w3.org/2000/svg" width="292" height="79" fill="none"><rect width="292" height="79" fill="#fff" rx="20"/><path fill="#0A1128" d="M30.534 23.62c.912 0 1.692.156 2.34.468a3.33 3.33 0 0 1 1.494 1.314c.36.564.54 1.248.54 2.052s-.18 1.494-.54 2.07c-.348.564-.846 1.002-1.494 1.314-.648.3-1.428.45-2.34.45h-2.502V35.5h-2.484V23.62h4.986Zm-.378 5.706c.744 0 1.302-.156 1.674-.468.372-.324.558-.792.558-1.404 0-.624-.186-1.092-.558-1.404-.372-.312-.93-.468-1.674-.468h-2.124v3.744h2.124Zm11.547.432c0-.516-.15-.918-.45-1.206-.288-.288-.672-.432-1.152-.432-.444 0-.834.114-1.17.342-.336.228-.582.606-.738 1.134l-2.106-.648a3.262 3.262 0 0 1 1.332-1.908c.696-.48 1.626-.72 2.79-.72.792 0 1.482.126 2.07.378.588.24 1.044.606 1.368 1.098.336.492.504 1.11.504 1.854v3.654c0 .456.216.684.648.684.204 0 .396-.03.576-.09l-.144 1.53c-.312.156-.702.234-1.17.234-.42 0-.798-.072-1.134-.216a1.76 1.76 0 0 1-.792-.648c-.192-.3-.288-.672-.288-1.116v-.072l.432-.072a2.07 2.07 0 0 1-.594 1.17c-.324.312-.72.552-1.188.72-.456.168-.93.252-1.422.252-.612 0-1.14-.09-1.584-.27-.444-.192-.786-.468-1.026-.828-.24-.36-.36-.804-.36-1.332 0-.672.216-1.218.648-1.638.432-.432 1.05-.726 1.854-.882l3.384-.684-.018 1.53-2.16.432c-.408.084-.72.198-.936.342-.204.132-.306.354-.306.666 0 .3.108.528.324.684a1.4 1.4 0 0 0 .81.234c.252 0 .498-.03.738-.09s.456-.156.648-.288a1.33 1.33 0 0 0 .45-.54c.108-.228.162-.504.162-.828v-2.43Zm13.214-5.4.288 1.764h-.162a.67.67 0 0 0-.162-.018c-.552 0-.966.126-1.242.378-.276.24-.414.576-.414 1.008l-1.008-.414c0-.48.096-.924.288-1.332.192-.42.474-.756.846-1.008.384-.252.84-.378 1.368-.378h.198Zm-2.952 9.45c.972 0 1.722.21 2.25.63.528.42.792 1.008.792 1.764 0 .684-.198 1.26-.594 1.728-.396.48-.954.84-1.674 1.08-.708.24-1.53.36-2.466.36-1.548 0-2.682-.216-3.402-.648-.708-.432-1.062-.996-1.062-1.692 0-.492.186-.906.558-1.242.384-.336 1.014-.522 1.89-.558l-.09.288c-.624-.108-1.104-.312-1.44-.612-.324-.312-.486-.738-.486-1.278 0-.552.21-1.002.63-1.35.432-.36 1.014-.57 1.746-.63l1.08.504h-.252c-.516.036-.882.144-1.098.324-.204.168-.306.36-.306.576 0 .252.096.444.288.576.204.12.492.18.864.18h2.772Zm-1.674 3.87c.624 0 1.134-.054 1.53-.162.408-.108.708-.246.9-.414.204-.168.306-.354.306-.558a.682.682 0 0 0-.27-.558c-.18-.132-.504-.198-.972-.198h-3.042c-.288 0-.528.072-.72.216a.72.72 0 0 0-.27.594c0 .336.222.6.666.792.456.192 1.08.288 1.872.288Zm.018-11.358c.84 0 1.566.126 2.178.378.624.24 1.098.588 1.422 1.044.336.456.504 1.002.504 1.638 0 .624-.168 1.164-.504 1.62-.324.456-.798.81-1.422 1.062-.612.24-1.338.36-2.178.36-1.332 0-2.352-.27-3.06-.81-.696-.552-1.044-1.296-1.044-2.232 0-.636.162-1.182.486-1.638.336-.456.81-.804 1.422-1.044.612-.252 1.344-.378 2.196-.378Zm0 1.548c-.48 0-.876.132-1.188.396-.312.264-.468.63-.468 1.098 0 .468.156.84.468 1.116.312.264.708.396 1.188.396s.87-.132 1.17-.396c.312-.276.468-.648.468-1.116 0-.468-.156-.834-.468-1.098-.3-.264-.69-.396-1.17-.396Zm10.005 7.812c-.948 0-1.776-.186-2.484-.558a3.931 3.931 0 0 1-1.62-1.602c-.384-.696-.576-1.536-.576-2.52s.192-1.824.576-2.52a3.96 3.96 0 0 1 1.602-1.602c.696-.372 1.488-.558 2.376-.558.912 0 1.686.186 2.322.558.636.36 1.122.858 1.458 1.494.336.624.504 1.338.504 2.142 0 .24-.006.468-.018.684a6.77 6.77 0 0 1-.054.576h-7.182v-1.71h6.102l-1.188.432c0-.756-.174-1.338-.522-1.746-.336-.408-.816-.612-1.44-.612-.456 0-.852.108-1.188.324-.324.216-.57.54-.738.972-.168.42-.252.954-.252 1.602 0 .636.09 1.164.27 1.584.192.408.456.714.792.918.348.204.762.306 1.242.306.528 0 .954-.102 1.278-.306a2.07 2.07 0 0 0 .756-.846l1.962.756c-.192.468-.486.87-.882 1.206a3.994 3.994 0 0 1-1.386.774 5.61 5.61 0 0 1-1.71.252Zm15.62-12.24c1.08 0 2.028.186 2.844.558a5.57 5.57 0 0 1 2.088 1.656l-1.386 1.602c-.492-.624-1.032-1.08-1.62-1.368-.576-.3-1.248-.45-2.016-.45-.504 0-.924.066-1.26.198-.324.132-.564.306-.72.522a1.27 1.27 0 0 0-.216.72c0 .324.126.6.378.828.252.216.684.396 1.296.54l2.214.504c1.176.264 2.016.66 2.52 1.188.516.516.774 1.188.774 2.016 0 .78-.204 1.452-.612 2.016-.408.552-.978.978-1.71 1.278-.732.288-1.572.432-2.52.432-.828 0-1.59-.096-2.286-.288a7.13 7.13 0 0 1-1.836-.828c-.54-.348-.99-.75-1.35-1.206l1.404-1.674c.276.384.618.726 1.026 1.026.408.3.87.54 1.386.72.528.168 1.08.252 1.656.252.492 0 .906-.054 1.242-.162.348-.12.606-.282.774-.486.18-.216.27-.474.27-.774 0-.312-.108-.576-.324-.792-.204-.228-.588-.402-1.152-.522l-2.412-.54c-.696-.168-1.296-.384-1.8-.648-.492-.276-.87-.624-1.134-1.044-.252-.432-.378-.942-.378-1.53 0-.708.192-1.344.576-1.908.384-.564.936-1.008 1.656-1.332.732-.336 1.608-.504 2.628-.504Zm10.72 2.88c.804 0 1.482.12 2.034.36.564.228 1.014.546 1.35.954.348.396.594.84.738 1.332l-2.304.828c-.12-.54-.324-.948-.612-1.224s-.678-.414-1.17-.414c-.456 0-.846.108-1.17.324-.324.204-.57.522-.738.954-.168.42-.252.948-.252 1.584 0 .636.084 1.164.252 1.584.18.42.432.732.756.936a2.21 2.21 0 0 0 1.17.306c.36 0 .666-.06.918-.18a1.61 1.61 0 0 0 .612-.558c.168-.24.282-.528.342-.864l2.232.72a3.3 3.3 0 0 1-.738 1.422c-.36.408-.822.726-1.386.954-.564.228-1.218.342-1.962.342-.924 0-1.74-.186-2.448-.558a3.905 3.905 0 0 1-1.638-1.602c-.384-.696-.576-1.536-.576-2.52s.192-1.824.576-2.52a3.931 3.931 0 0 1 1.62-1.602c.696-.372 1.494-.558 2.394-.558Zm9.818 0c.912 0 1.71.186 2.394.558a3.932 3.932 0 0 1 1.62 1.602c.396.696.594 1.536.594 2.52 0 .972-.198 1.812-.594 2.52a3.932 3.932 0 0 1-1.62 1.602c-.684.372-1.482.558-2.394.558-.9 0-1.698-.186-2.394-.558a4.047 4.047 0 0 1-1.638-1.602c-.384-.708-.576-1.548-.576-2.52 0-.984.192-1.824.576-2.52a4.047 4.047 0 0 1 1.638-1.602c.696-.372 1.494-.558 2.394-.558Zm0 1.836c-.456 0-.846.108-1.17.324-.312.204-.552.516-.72.936-.168.42-.252.948-.252 1.584 0 .636.084 1.164.252 1.584.168.42.408.738.72.954.324.204.714.306 1.17.306.444 0 .822-.102 1.134-.306.324-.216.57-.534.738-.954.168-.42.252-.948.252-1.584 0-.636-.084-1.164-.252-1.584-.168-.42-.414-.732-.738-.936-.312-.216-.69-.324-1.134-.324Zm6.311 7.344v-9h2.142l.162 1.764c.24-.624.588-1.104 1.044-1.44.468-.336 1.05-.504 1.746-.504.204 0 .39.018.558.054.168.036.306.084.414.144l-.288 2.07a1.905 1.905 0 0 0-.45-.108 4.911 4.911 0 0 0-.666-.036c-.36 0-.708.09-1.044.27a2.014 2.014 0 0 0-.828.792c-.216.348-.324.792-.324 1.332V35.5h-2.466Zm11.234.18c-.948 0-1.776-.186-2.484-.558a3.931 3.931 0 0 1-1.62-1.602c-.384-.696-.576-1.536-.576-2.52s.192-1.824.576-2.52a3.96 3.96 0 0 1 1.602-1.602c.696-.372 1.488-.558 2.376-.558.912 0 1.686.186 2.322.558.636.36 1.122.858 1.458 1.494.336.624.504 1.338.504 2.142 0 .24-.006.468-.018.684a6.77 6.77 0 0 1-.054.576h-7.182v-1.71h6.102l-1.188.432c0-.756-.174-1.338-.522-1.746-.336-.408-.816-.612-1.44-.612-.456 0-.852.108-1.188.324-.324.216-.57.54-.738.972-.168.42-.252.954-.252 1.602 0 .636.09 1.164.27 1.584.192.408.456.714.792.918.348.204.762.306 1.242.306.528 0 .954-.102 1.278-.306a2.07 2.07 0 0 0 .756-.846l1.962.756c-.192.468-.486.87-.882 1.206a3.994 3.994 0 0 1-1.386.774 5.61 5.61 0 0 1-1.71.252Z"/><path fill="#595959" d="M28.842 51.318V61.5h-1.54v-8.64h-.06l-2.437 1.59v-1.47l2.54-1.66h1.497Zm8.497 4.41-1.347.239a1.599 1.599 0 0 0-.269-.493 1.33 1.33 0 0 0-.487-.382c-.206-.1-.463-.15-.77-.15-.422 0-.773.095-1.055.284-.282.185-.422.426-.422.72a.76.76 0 0 0 .283.617c.189.156.494.284.915.383l1.213.278c.703.163 1.226.413 1.57.751.346.338.518.777.518 1.318 0 .457-.133.865-.398 1.223-.262.354-.628.633-1.099.835-.467.202-1.009.303-1.625.303-.855 0-1.553-.182-2.093-.547-.54-.368-.872-.89-.995-1.566l1.437-.219c.09.375.274.658.552.85.278.19.641.284 1.089.284.487 0 .877-.101 1.168-.303.292-.206.438-.456.438-.751a.78.78 0 0 0-.269-.602c-.175-.162-.446-.285-.81-.367l-1.293-.284c-.712-.162-1.24-.42-1.58-.775-.339-.355-.508-.804-.508-1.348 0-.45.126-.845.378-1.183.252-.338.6-.602 1.044-.79.444-.193.953-.289 1.526-.289.826 0 1.475.18 1.95.537.473.355.786.83.939 1.427Zm5.348-1.864v1.193h-4.171v-1.193h4.171Zm-3.053-1.83h1.487v7.224c0 .288.043.505.13.651.085.143.196.24.332.293.14.05.29.075.453.075.119 0 .223-.008.313-.025.09-.016.159-.03.209-.04l.268 1.228a2.99 2.99 0 0 1-.964.16 2.615 2.615 0 0 1-1.094-.21 1.876 1.876 0 0 1-.82-.675c-.21-.305-.314-.688-.314-1.149v-7.532Zm12.48-.716h1.53v7.219c0 .653-.129 1.211-.387 1.675a2.588 2.588 0 0 1-1.08 1.064c-.463.242-1.007.363-1.63.363a3.682 3.682 0 0 1-1.546-.313 2.543 2.543 0 0 1-1.079-.91c-.262-.4-.393-.888-.393-1.461h1.527c0 .281.064.525.194.73.132.206.313.367.541.483.232.112.498.169.796.169.325 0 .6-.068.825-.204a1.32 1.32 0 0 0 .522-.612c.12-.268.18-.596.18-.984v-7.219Zm5.87 10.351a3.12 3.12 0 0 1-1.313-.268 2.211 2.211 0 0 1-.93-.79c-.225-.346-.338-.768-.338-1.269 0-.43.083-.785.249-1.064.165-.278.39-.498.67-.66.282-.163.597-.286.945-.369a9.387 9.387 0 0 1 1.064-.189l1.114-.129c.285-.036.492-.094.621-.174.13-.08.194-.209.194-.388v-.035c0-.434-.122-.77-.368-1.009-.242-.238-.603-.358-1.083-.358-.5 0-.895.111-1.184.333-.285.22-.482.463-.591.731l-1.397-.318c.165-.464.407-.839.726-1.123a2.942 2.942 0 0 1 1.108-.627 4.328 4.328 0 0 1 1.318-.199c.305 0 .628.037.97.11.344.07.665.198.964.387.301.19.548.46.74.81.193.349.289.801.289 1.358V61.5H60.3v-1.044h-.06c-.096.192-.24.381-.432.567-.192.185-.44.34-.74.462-.302.123-.664.184-1.085.184Zm.322-1.193c.411 0 .763-.081 1.054-.244a1.7 1.7 0 0 0 .672-.636 1.65 1.65 0 0 0 .233-.85v-.985c-.053.053-.156.103-.308.15-.15.043-.32.08-.512.114-.192.03-.38.058-.562.084l-.457.06a3.685 3.685 0 0 0-.79.184c-.236.086-.425.21-.568.373-.139.159-.208.371-.208.636 0 .368.136.646.407.835.272.186.618.279 1.04.279Zm6.912-3.51V61.5h-1.486v-7.636h1.427v1.242h.094a2.18 2.18 0 0 1 .825-.974c.378-.245.854-.368 1.427-.368.52 0 .976.11 1.367.328.391.216.695.537.91.965.216.427.323.956.323 1.586V61.5H68.62v-4.678c0-.554-.144-.986-.433-1.298-.288-.315-.684-.472-1.188-.472-.345 0-.651.074-.92.224a1.61 1.61 0 0 0-.631.656c-.153.285-.229.63-.229 1.034Zm11.718 1.367v-4.47h1.492V61.5h-1.462v-1.322h-.08a2.382 2.382 0 0 1-.845 1.019c-.384.268-.863.402-1.436.402a2.58 2.58 0 0 1-1.303-.323 2.27 2.27 0 0 1-.885-.97c-.212-.427-.318-.955-.318-1.585v-4.857h1.486v4.678c0 .52.145.935.433 1.243.288.308.663.462 1.123.462.279 0 .556-.07.83-.209.28-.139.51-.35.692-.631.185-.282.277-.64.273-1.074Zm5.711 3.336a3.12 3.12 0 0 1-1.312-.268 2.211 2.211 0 0 1-.93-.79c-.225-.346-.338-.768-.338-1.269 0-.43.083-.785.249-1.064.165-.278.39-.498.67-.66.283-.163.597-.286.945-.369a9.383 9.383 0 0 1 1.064-.189l1.114-.129c.285-.036.492-.094.622-.174.129-.08.193-.209.193-.388v-.035c0-.434-.122-.77-.368-1.009-.242-.238-.603-.358-1.083-.358-.5 0-.895.111-1.184.333-.285.22-.482.463-.591.731l-1.397-.318c.165-.464.407-.839.726-1.123a2.943 2.943 0 0 1 1.108-.627 4.328 4.328 0 0 1 1.318-.199c.305 0 .628.037.97.11.344.07.665.198.964.387.301.19.548.46.74.81.193.349.289.801.289 1.358V61.5h-1.452v-1.044h-.06c-.096.192-.24.381-.432.567-.192.185-.44.34-.74.462-.302.123-.664.184-1.085.184Zm.323-1.193c.412 0 .763-.081 1.055-.244.294-.162.518-.374.67-.636a1.65 1.65 0 0 0 .234-.85v-.985c-.053.053-.155.103-.308.15-.15.043-.32.08-.512.114-.192.03-.38.058-.562.084l-.457.06a3.686 3.686 0 0 0-.79.184c-.236.086-.425.21-.567.373-.14.159-.21.371-.21.636 0 .368.137.646.409.835.271.186.618.279 1.038.279Zm5.426 1.024v-7.636h1.437v1.213h.08c.138-.411.384-.734.735-.97a2.106 2.106 0 0 1 1.203-.358 6.386 6.386 0 0 1 .631.035v1.422a2.658 2.658 0 0 0-.318-.055 3.035 3.035 0 0 0-.457-.035 1.94 1.94 0 0 0-.94.224 1.662 1.662 0 0 0-.885 1.497V61.5h-1.486Zm6.545 2.864c-.222 0-.424-.019-.607-.055a1.91 1.91 0 0 1-.407-.11l.358-1.218a2.4 2.4 0 0 0 .725.095.87.87 0 0 0 .562-.239c.166-.149.312-.392.438-.73l.184-.508-2.794-7.735h1.59l1.934 5.926h.08l1.934-5.926h1.596l-3.147 8.655a3.452 3.452 0 0 1-.557 1.01 2.163 2.163 0 0 1-.805.626 2.64 2.64 0 0 1-1.084.209Zm8.445-4.256-.074.542c-.05.398-.134.812-.254 1.243-.116.434-.237.837-.363 1.208-.122.371-.223.666-.303.885h-1.054c.043-.206.103-.484.179-.835.076-.348.151-.738.224-1.169.073-.43.127-.87.164-1.317l.05-.557h1.431Zm5.621 1.392v-1.114l3.445-3.57c.368-.387.671-.727.91-1.018a3.86 3.86 0 0 0 .542-.84c.119-.266.179-.547.179-.846 0-.338-.08-.63-.239-.875a1.559 1.559 0 0 0-.651-.572 2.071 2.071 0 0 0-.93-.203 1.95 1.95 0 0 0-.954.223 1.54 1.54 0 0 0-.627.632c-.146.272-.219.59-.219.954h-1.466c0-.62.142-1.161.427-1.625a2.9 2.9 0 0 1 1.174-1.08c.497-.258 1.062-.387 1.695-.387.64 0 1.203.128 1.69.383.491.252.874.596 1.149 1.034.275.434.412.925.412 1.472 0 .377-.071.747-.213 1.108-.14.361-.383.764-.731 1.208-.348.441-.832.976-1.452 1.606l-2.023 2.118v.075h4.583V61.5h-6.701Zm12.13.169c-.785-.003-1.456-.21-2.013-.621-.557-.411-.983-1.01-1.278-1.795-.295-.786-.442-1.732-.442-2.839 0-1.104.147-2.047.442-2.829.299-.782.726-1.379 1.283-1.79.56-.41 1.23-.616 2.008-.616.779 0 1.447.207 2.004.621.557.411.983 1.008 1.278 1.79.298.78.447 1.72.447 2.824 0 1.11-.147 2.058-.442 2.844-.295.782-.721 1.38-1.278 1.795-.557.41-1.226.616-2.009.616Zm0-1.327c.69 0 1.228-.337 1.616-1.01.391-.672.587-1.645.587-2.918 0-.845-.09-1.56-.269-2.143-.175-.586-.429-1.03-.76-1.332a1.664 1.664 0 0 0-1.174-.458c-.686 0-1.224.339-1.615 1.015-.391.676-.589 1.649-.592 2.918 0 .849.088 1.566.264 2.153.179.583.432 1.026.76 1.327.328.299.723.448 1.183.448Zm5.493 1.158v-1.114l3.445-3.57c.368-.387.671-.727.91-1.018a3.86 3.86 0 0 0 .542-.84c.119-.266.179-.547.179-.846 0-.338-.08-.63-.239-.875a1.559 1.559 0 0 0-.651-.572 2.071 2.071 0 0 0-.93-.203 1.95 1.95 0 0 0-.954.223 1.54 1.54 0 0 0-.627.632c-.146.272-.219.59-.219.954h-1.466c0-.62.142-1.161.427-1.625a2.907 2.907 0 0 1 1.174-1.08c.497-.258 1.062-.387 1.695-.387.64 0 1.203.128 1.69.383.491.252.874.596 1.149 1.034.275.434.412.925.412 1.472 0 .377-.071.747-.213 1.108-.14.361-.383.764-.731 1.208-.348.441-.832.976-1.452 1.606l-2.023 2.118v.075h4.583V61.5h-6.701Zm12.13.14c-.682 0-1.292-.118-1.829-.354-.534-.235-.956-.562-1.268-.98a2.6 2.6 0 0 1-.497-1.46h1.561c.02.3.121.563.303.785.186.218.428.388.726.507.299.12.63.179.995.179.401 0 .755-.07 1.063-.209.312-.14.556-.333.731-.582.176-.252.264-.542.264-.87a1.56 1.56 0 0 0-.264-.9 1.72 1.72 0 0 0-.76-.616c-.332-.15-.733-.224-1.204-.224h-.86v-1.253h.86c.378 0 .71-.068.995-.203a1.63 1.63 0 0 0 .676-.567c.162-.245.244-.532.244-.86a1.54 1.54 0 0 0-.214-.82 1.433 1.433 0 0 0-.597-.553 1.938 1.938 0 0 0-.905-.198c-.331 0-.641.061-.929.184a1.708 1.708 0 0 0-.696.517 1.335 1.335 0 0 0-.289.8h-1.486a2.51 2.51 0 0 1 .487-1.452 3.156 3.156 0 0 1 1.233-.979 4.01 4.01 0 0 1 1.7-.353c.653 0 1.217.128 1.691.383.477.252.845.588 1.103 1.009.262.421.391.882.388 1.382.003.57-.156 1.054-.477 1.452-.318.398-.743.664-1.273.8v.08c.676.103 1.2.371 1.571.805.375.434.56.973.557 1.616a2.523 2.523 0 0 1-.467 1.506 3.187 3.187 0 0 1-1.278 1.05c-.54.251-1.159.377-1.855.377Z"/><path fill="#0A1128" d="M230.96 26.2c2.347 0 4.32.547 5.92 1.64 1.6 1.067 2.8 2.613 3.6 4.64.827 2 1.24 4.413 1.24 7.24 0 3.12-.44 5.693-1.32 7.72-.88 2-2.133 3.493-3.76 4.48-1.6.987-3.48 1.48-5.64 1.48-2.267 0-4.227-.48-5.88-1.44-1.627-.96-2.853-2.427-3.68-4.4l5.08-2.16c.293 1.093.8 1.973 1.52 2.64.747.64 1.773.96 3.08.96 1.04 0 1.92-.2 2.64-.6a4.662 4.662 0 0 0 1.72-1.8c.453-.773.773-1.72.96-2.84.213-1.12.32-2.373.32-3.76v-.56h-.16a4.915 4.915 0 0 1-1.52 2.32 7.009 7.009 0 0 1-2.4 1.32c-.907.267-1.84.4-2.8.4-1.68 0-3.173-.333-4.48-1a7.896 7.896 0 0 1-3.04-2.88c-.747-1.253-1.12-2.707-1.12-4.36 0-1.867.4-3.467 1.2-4.8.8-1.36 1.92-2.4 3.36-3.12 1.467-.747 3.187-1.12 5.16-1.12Zm.04 4.48c-1.413 0-2.52.4-3.32 1.2-.8.773-1.2 1.867-1.2 3.28 0 1.253.413 2.24 1.24 2.96.827.693 1.92 1.04 3.28 1.04.88 0 1.653-.173 2.32-.52a3.74 3.74 0 0 0 1.6-1.48c.373-.64.56-1.373.56-2.2 0-.88-.187-1.64-.56-2.28a3.74 3.74 0 0 0-1.6-1.48c-.667-.347-1.44-.52-2.32-.52ZM257.328 53v-6.2h-12.88v-3.6c.133-.267.32-.587.56-.96.266-.4.56-.853.88-1.36l9.84-14.28h6.6v16.2h4.28v4h-4.28V53h-5Zm-8.16-10.2h8.2v-8.72c0-.56.013-1.16.04-1.8.026-.64.053-1.267.08-1.88h-.08a25.701 25.701 0 0 1-1.08 1.92c-.4.667-.774 1.267-1.12 1.8l-5.52 7.92c-.08.133-.174.267-.28.4-.08.107-.16.227-.24.36Z"/></svg>